<svg xmlns="http://www.w3.org/2000/svg" version="1.1" width="256px" height="256px" style="shape-rendering:geometricPrecision; text-rendering:geometricPrecision; image-rendering:optimizeQuality; fill-rule:evenodd; clip-rule:evenodd" xmlns:xlink="http://www.w3.org/1999/xlink"><g><path style="opacity:0.999" fill="#29c4b7" d="M 219.5,47.5 C 188.236,82.6036 156.736,117.604 125,152.5C 115,138.5 105,124.5 95,110.5C 86.9017,102.006 78.235,101.339 69,108.5C 65.2172,114.101 64.5505,120.101 67,126.5C 82,147.5 97,168.5 112,189.5C 117.205,193.319 123.038,194.486 129.5,193C 132.562,191.939 135.062,190.106 137,187.5C 170.375,150.296 203.541,112.962 236.5,75.5C 240.031,80.5753 242.531,86.242 244,92.5C 256.465,142.151 244.298,184.651 207.5,220C 168.045,251.353 124.712,258.019 77.5,240C 38.4383,221.931 14.605,191.764 6,149.5C -0.931245,99.5616 15.2354,59.0616 54.5,28C 87.3411,5.73497 123.008,-0.265028 161.5,10C 184.426,17.1193 203.759,29.6193 219.5,47.5 Z"/></g><g><path style="opacity:0.998" fill="#fdfefe" d="M 219.5,47.5 C 226.685,55.8623 232.352,65.1956 236.5,75.5C 203.541,112.962 170.375,150.296 137,187.5C 135.062,190.106 132.562,191.939 129.5,193C 123.038,194.486 117.205,193.319 112,189.5C 97,168.5 82,147.5 67,126.5C 64.5505,120.101 65.2172,114.101 69,108.5C 78.235,101.339 86.9017,102.006 95,110.5C 105,124.5 115,138.5 125,152.5C 156.736,117.604 188.236,82.6036 219.5,47.5 Z"/></g></svg>